# xmcd CD database file
#
# Track frame offsets:
#	150
#	11145
#	25344
#	52030
#	66380
#	72582
#	82125
#	92930
#	105092
#	116490
#	125952
#	132005
#	136382
#	142692
#	153812
#	169045
#	185795
#	195490
#	205120
#	209042
#	216375
#	225502
#	232142
#	243885
#	249957
#	263050
#	274855
#	283490
#	290307
#
# Disc length: 4026 seconds
#
# Revision: 1
# Processed by: cddbd v1.5.2PL0 Copyright (c) Steve Scherf et al.
# Submitted via: CDex 1.51
#
DISCID=c10fb81d
DTITLE=Queensland SO - Lyndon-Gee - Bliss Music from 'Things to Come'
DYEAR=1995
DGENRE=Christian Rap
TTITLE0=Discourse for Orchestra -I- Allegro (Tema) -
TTITLE1=Discourse for Orchestra -II- Allegro vivace (Gigue) -
TTITLE2=Discourse for Orchestra -III- Andante tranquillo - 
TTITLE3=Discourse for Orchestra -IV- Andante con brio (Recapitulation) - 
TTITLE4=Discourse for Orchestra -V- Maestoso -
TTITLE5=Discourse for Orchestra -VI- Tranquillo (Coda)
TTITLE6=Miracle in the Gorbals -I- Overture
TTITLE7=Miracle in the Gorbals -II- The Street
TTITLE8=Miracle in the Gorbals -III- The Girl Suicide
TTITLE9=Miracle in the Gorbals -IV- The Young Lovers
TTITLE10=Miracle in the Gorbals -V- The Prostitute and the Boy
TTITLE11=Miracle in the Gorbals -VI- The Official
TTITLE12=Miracle in the Gorbals -VII- Discovery of the Suicide's Body
TTITLE13=Miracle in the Gorbals -VIII- The Suicide's Body is brought in
TTITLE14=Miracle in the Gorbals -IX- The Stranger (Variations)
TTITLE15=Miracle in the Gorbals -X- Dance of Deliverance
TTITLE16=Miracle in the Gorbals -XI- The Official and the Prostitute
TTITLE17=Miracle in the Gorbals -XII- The Mother's Lullaby
TTITLE18=Miracle in the Gorbals -XIII- Two 'Jolly' Couples
TTITLE19=Miracle in the Gorbals -XIV- Official Leaves the Prostitute
TTITLE20=Miracle in the Gorbals -XV- The Whispering Campaign
TTITLE21=Miracle in the Gorbals -XVI- The Official and the Prostitute
TTITLE22=Miracle in the Gorbals -XVII- The Killing of the Stranger
TTITLE23=Miracle in the Gorbals -XVIII- Coda (Molto sostenuto)
TTITLE24=Music from 'Things to Come' -I- Prologue
TTITLE25=Music from 'Things to Come' -II- Interlude: The World in Ruins -
TTITLE26=Music from 'Things to Come' -III- The Building of the New World -
TTITLE27=Music from 'Things to Come' -IV- Attack on the Moon Gun -
TTITLE28=Music from 'Things to Come' -V- Epilogue
EXTD=YEAR: 1995
EXTT0=
EXTT1=
EXTT2=
EXTT3=
EXTT4=
EXTT5=
EXTT6=
EXTT7=
EXTT8=
EXTT9=
EXTT10=
EXTT11=
EXTT12=
EXTT13=
EXTT14=
EXTT15=
EXTT16=
EXTT17=
EXTT18=
EXTT19=
EXTT20=
EXTT21=
EXTT22=
EXTT23=
EXTT24=
EXTT25=
EXTT26=
EXTT27=
EXTT28=
PLAYORDER=
